<svg xmlns="http://www.w3.org/2000/svg" width="100" height="100"><path d="M50 0a50 50 0 1 0 50 50A50 50 0 0 0 50 0zm0 78.48c-13.52 0-23.18-1.84-23-3.52 1.23-9.21 8.65-10.09 13.36-13.86 2.11-1.69 3.14-1.27 3.14-4.09V52.5c-1.27-1.41-1.73-1.24-2.8-6.77-2.17 0-2-2.82-3.05-5.32-.8-2-.19-2.79.49-3.16a17.82 17.82 0 0 1 2.64-11.76l-.44-3.06a7.9 7.9 0 0 0 3.06-.22c2.18-.44 7.42-1.74 10.47.87 7.35 1.08 9.28 7.11 7.84 14.13.71.33 1.41 1.16.57 3.2-1 2.5-.88 5.32-3 5.32-1.07 5.53-1.53 5.36-2.8 6.77V57c0 2.82 1 2.4 3.14 4.09C64.32 64.87 71.74 65.75 73 75c.17 1.64-9.49 3.48-23 3.48z" fill="#37789b"/></svg>