<svg xmlns="http://www.w3.org/2000/svg" xmlns:xlink="http://www.w3.org/1999/xlink" width="100" height="100"><defs><path id="a" d="M11.3 19.9h77.4v60.2H11.3z"/></defs><clipPath id="b"><use xlink:href="#a" overflow="visible"/></clipPath><g clip-path="url(#b)"><path d="M45 80l-7.3-2c-.8-.2-1.2-1-1-1.8l16.5-55.3c.2-.8 1-1.2 1.8-1l7.4 2.1c.8.2 1.2 1 1 1.8L46.8 79.1c-.2.7-1 1.2-1.8.9zM31.2 66.8l5.3-5.5c.6-.6.5-1.5-.1-2l-11-9.4 11-9.4c.6-.5.7-1.4.1-2L31.2 33c-.5-.6-1.5-.6-2.1-.1L11.8 49c-.6.6-.6 1.5 0 2.1L29.2 67c.6.4 1.5.4 2-.2zm39.6.1L88.2 51c.6-.6.6-1.5 0-2.1L70.8 33.1c-.6-.5-1.5-.5-2.1.1l-5.3 5.5c-.6.6-.5 1.5.1 2l11 9.4-11 9.4c-.6.5-.7 1.4-.1 2l5.3 5.5c.6.4 1.5.4 2.1-.1z" fill="#37789b"/></g></svg>