<svg fill="none" height="14" viewBox="0 0 14 14" width="14" xmlns="http://www.w3.org/2000/svg"><path d="m7 7c1.89375 0 3.4286-1.5668 3.4286-3.5s-1.53485-3.5-3.4286-3.5-3.42857 1.5668-3.42857 3.5 1.53482 3.5 3.42857 3.5zm2.56607.89141-1.28036 5.23359-.85714-3.71875.85714-1.53125h-2.57142l.85714 1.53125-.85714 3.71875-1.28036-5.23359c-1.90982.09297-3.43393 1.68711-3.43393 3.65859v1.1375c0 .7246.57589 1.3125 1.28571 1.3125h9.42859c.7098 0 1.2857-.5879 1.2857-1.3125v-1.1375c0-1.97148-1.5241-3.56562-3.43393-3.65859z" fill="#333"/></svg>