<svg width="14" height="14" viewBox="0 0 14 14" fill="none" xmlns="http://www.w3.org/2000/svg"><g clip-path="url(#clip0)"><path d="M6.10148 12.2276L4.76711 11.8391C4.62711 11.7996 4.54836 11.6525 4.58773 11.512L7.57367 1.19017C7.61305 1.04967 7.75961 0.970646 7.89961 1.01016L9.23398 1.39871C9.37399 1.43822 9.45273 1.5853 9.41336 1.7258L6.42742 12.0476C6.38586 12.1881 6.24148 12.2694 6.10148 12.2276ZM3.60773 9.76463L4.5593 8.74605C4.65992 8.63849 4.65336 8.46726 4.5418 8.36848L2.55992 6.6189L4.5418 4.86933C4.65336 4.77054 4.66211 4.59932 4.5593 4.49175L3.60773 3.47318C3.5093 3.36781 3.34305 3.36122 3.23586 3.4622L0.0836719 6.42572C-0.0278906 6.5289 -0.0278906 6.70671 0.0836719 6.80989L3.23586 9.7756C3.34305 9.87658 3.5093 9.87219 3.60773 9.76463ZM10.7652 9.7778L13.9174 6.81208C14.029 6.70891 14.029 6.53109 13.9174 6.42792L10.7652 3.46001C10.6602 3.36122 10.494 3.36561 10.3934 3.47098L9.4418 4.48956C9.34117 4.59712 9.34773 4.76835 9.4593 4.86713L11.4412 6.6189L9.4593 8.36848C9.34773 8.46726 9.33899 8.63849 9.4418 8.74605L10.3934 9.76463C10.4918 9.87219 10.658 9.87658 10.7652 9.7778Z" fill="#333"/></g><defs><clipPath id="clip0"><rect width="14" height="14" fill="#fff"/></clipPath></defs></svg>