<svg fill="none" height="14" viewBox="0 0 14 14" width="14" xmlns="http://www.w3.org/2000/svg"><path d="m5.57878 6.65704c.13672.13513.35831.13513.49503 0l.24741-.24453c.13672-.13513.13672-.35415 0-.48927l-.78138-.77208.78116-.77229c.13672-.13513.13672-.35414 0-.48927l-.24741-.24453c-.13672-.13513-.35831-.13513-.49503 0l-1.27619 1.26135c-.13671.13513-.13671.35414 0 .48927zm2.10022-.24431.24741.24453c.13671.13513.35831.13513.49503 0l1.27619-1.26135c.13671-.13513.13671-.35415 0-.48928l-1.27619-1.26134c-.13672-.13513-.35832-.13513-.49503 0l-.24741.24452c-.13672.13513-.13672.35415 0 .48928l.78116.77207-.78116.77229c-.13672.13513-.13672.35415 0 .48928zm5.971 3.58146h-5.30381c-.01619.42831-.32178.69181-.71619.69181h-1.33c-.40884 0-.72231-.3777-.71684-.69181h-5.23316c-.1925 0-.35.15571-.35.34591v.3459c0 .7611.63 1.3838 1.4 1.3838h11.2c.77 0 1.4-.6227 1.4-1.3838v-.3459c0-.1902-.1575-.34591-.35-.34591zm-1.05-7.9564c0-.57078-.4725-1.03779-1.05-1.03779h-9.1c-.5775 0-1.05.46701-1.05 1.03779v7.26454h11.2zm-1.4 5.88081h-8.4v-5.53488h8.4z" fill="#333"/></svg>