<svg width="100" height="100" xmlns="http://www.w3.org/2000/svg" xmlns:xlink="http://www.w3.org/1999/xlink"><defs><path id="a" d="M0 0h100v100H0z"/></defs><clipPath id="b"><use xlink:href="#a" overflow="visible"/></clipPath><path d="M86.1 83.3L61.5 58.7c9.3-10.8 8.9-27.1-1.4-37.3-10.7-10.7-28.1-10.7-38.8 0-10.7 10.7-10.7 28.1 0 38.8 5.3 5.3 12.4 8 19.4 8 6.4 0 12.8-2.2 17.9-6.7l24.6 24.6 2.9-2.8zm-61.9-26c-9.1-9.1-9.1-24 0-33.1 4.6-4.6 10.6-6.8 16.6-6.8s12 2.3 16.6 6.8c9.1 9.1 9.1 24 0 33.1-9.2 9.1-24.1 9.1-33.2 0z" clip-path="url(#b)" fill="#fff"/></svg>