<svg width="14" height="14" viewBox="0 0 14 14" fill="none" xmlns="http://www.w3.org/2000/svg"><g clip-path="url(#clip0)"><path d="M6.75289 13.7175C2.7441 7.95788 2 7.36676 2 5.25C2 2.3505 4.37167 0 7.2973 0C10.2229 0 12.5946 2.3505 12.5946 5.25C12.5946 7.36676 11.8505 7.95788 7.8417 13.7175C7.57863 14.0942 7.01593 14.0941 6.75289 13.7175ZM7.2973 7.4375C8.51631 7.4375 9.5045 6.45813 9.5045 5.25C9.5045 4.04187 8.51631 3.0625 7.2973 3.0625C6.07828 3.0625 5.09009 4.04187 5.09009 5.25C5.09009 6.45813 6.07828 7.4375 7.2973 7.4375Z" fill="#333"/></g><defs><clipPath id="clip0"><rect width="14" height="14" fill="#fff"/></clipPath></defs></svg>