<?xml version="1.0" encoding="utf-8"?>
<!-- Generator: Adobe Illustrator 21.1.0, SVG Export Plug-In . SVG Version: 6.00 Build 0)  -->
<svg width="100" height="100" version="1.1" id="レイヤー_1" xmlns="http://www.w3.org/2000/svg" xmlns:xlink="http://www.w3.org/1999/xlink" x="0px"
	 y="0px" viewBox="0 0 100 100" style="enable-background:new 0 0 100 100;" xml:space="preserve">
<style type="text/css">
	.st0{clip-path:url(#SVGID_2_);fill:#37789B;}
</style>
<g>
	<defs>
		<rect id="SVGID_1_" width="100" height="100"/>
	</defs>
	<clipPath id="SVGID_2_">
		<use xlink:href="#SVGID_1_"  style="overflow:visible;"/>
	</clipPath>
	<path class="st0" d="M18.7,62.8l-5.6,20.2c-0.7,2.4,1.5,4.6,3.9,3.9l20.2-5.6c0.5-0.1,1-0.4,1.4-0.8L86.2,33c1.1-1.1,1.1-2.8,0-3.8
		L70.9,13.8c-1.1-1.1-2.8-1.1-3.8,0L19.5,61.3C19.1,61.7,18.8,62.2,18.7,62.8z M24.5,82.6l-7.1-7.1l3.3-12l15.7,15.7L24.5,82.6z
		 M65,18.9L81.1,35l-3.3,3.3L61.7,22.2L65,18.9z"/>
</g>
</svg>
