<svg id="Layer_1" xmlns="http://www.w3.org/2000/svg" width="100" height="100"><style>.st1{fill:#fff}</style><circle cx="50" cy="50" r="50" fill="#37789b"/><path class="st1" d="M72.3 47.5H27.7c-.3 0-.5-.2-.5-.5v-7.2c0-.3.2-.5.5-.5h44.6c.3 0 .5.2.5.5V47c0 .2-.2.5-.5.5z"/><path class="st1" d="M42.6 42.9l-9.8-17c-.1-.2-.1-.5.2-.7l6.3-3.6c.2-.1.5-.1.7.2l10 17.4-6.7 3.9c-.3.1-.6 0-.7-.2zM67.2 25.9l-9.8 17c-.1.2-.4.3-.7.2L50 39.2l10.1-17.4c.1-.2.4-.3.7-.2l6.3 3.6c.2.2.2.5.1.7z"/><path class="st1" d="M45.9 78V39.7c0-.3.2-.5.5-.5h7.2c.3 0 .5.2.5.5V78c0 .3-.2.5-.5.5h-7.2c-.3 0-.5-.3-.5-.5z"/><path class="st1" d="M72.3 64H27.7c-.3 0-.5-.2-.5-.5v-7.2c0-.3.2-.5.5-.5h44.6c.3 0 .5.2.5.5v7.2c0 .2-.2.5-.5.5z"/></svg>