<?xml version="1.0" encoding="utf-8"?>
<!-- Generator: Adobe Illustrator 21.1.0, SVG Export Plug-In . SVG Version: 6.00 Build 0)  -->
<svg width="100" height="100" version="1.1" id="レイヤー_1" xmlns="http://www.w3.org/2000/svg" xmlns:xlink="http://www.w3.org/1999/xlink" x="0px"
	 y="0px" viewBox="0 0 100 100" style="enable-background:new 0 0 100 100;" xml:space="preserve">
<style type="text/css">
	.st0{clip-path:url(#SVGID_2_);fill:#999999;}
</style>
<g>
	<defs>
		<rect id="SVGID_1_" width="100" height="100"/>
	</defs>
	<clipPath id="SVGID_2_">
		<use xlink:href="#SVGID_1_"  style="overflow:visible;"/>
	</clipPath>
	<path class="st0" d="M86.1,83.3L61.5,58.7c9.3-10.8,8.9-27.1-1.4-37.3c-10.7-10.7-28.1-10.7-38.8,0c-10.7,10.7-10.7,28.1,0,38.8
		c5.3,5.3,12.4,8,19.4,8c6.4,0,12.8-2.2,17.9-6.7l24.6,24.6L86.1,83.3z M24.2,57.3c-9.1-9.1-9.1-24,0-33.1
		c4.6-4.6,10.6-6.8,16.6-6.8s12,2.3,16.6,6.8c9.1,9.1,9.1,24,0,33.1C48.2,66.4,33.3,66.4,24.2,57.3z"/>
</g>
</svg>
