<svg fill="none" height="14" viewBox="0 0 14 14" width="14" xmlns="http://www.w3.org/2000/svg"><path d="m13.125 4.5h-12.25c-.483246 0-.875-.39175-.875-.875v-1.75c0-.48325.391754-.875.875-.875h12.25c.4832 0 .875.39175.875.875v1.75c0 .48325-.3918.875-.875.875zm-1.3125-2.40625c-.3624 0-.6563.29381-.6563.65625s.2939.65625.6563.65625.6563-.29381.6563-.65625-.2939-.65625-.6563-.65625zm-1.75 0c-.36244 0-.65625.29381-.65625.65625s.29381.65625.65625.65625c.3624 0 .6563-.29381.6563-.65625s-.2939-.65625-.6563-.65625zm3.0625 6.78125h-12.25c-.483246 0-.875-.39175-.875-.875v-1.75c0-.48325.391754-.875.875-.875h12.25c.4832 0 .875.39175.875.875v1.75c0 .48325-.3918.875-.875.875zm-1.3125-2.40625c-.3624 0-.6563.29381-.6563.65625s.2939.65625.6563.65625.6563-.29381.6563-.65625-.2939-.65625-.6563-.65625zm-1.75 0c-.36244 0-.65625.29381-.65625.65625s.29381.65625.65625.65625c.3624 0 .6563-.29381.6563-.65625s-.2939-.65625-.6563-.65625zm3.0625 6.78125h-12.25c-.483246 0-.875-.3918-.875-.875v-1.75c0-.4832.391754-.875.875-.875h12.25c.4832 0 .875.3918.875.875v1.75c0 .4832-.3918.875-.875.875zm-1.3125-2.4062c-.3624 0-.6563.2938-.6563.6562s.2939.6562.6563.6562.6563-.2938.6563-.6562-.2939-.6562-.6563-.6562zm-1.75 0c-.36244 0-.65625.2938-.65625.6562s.29381.6562.65625.6562c.3624 0 .6563-.2938.6563-.6562s-.2939-.6562-.6563-.6562z" fill="#333"/></svg>