<svg fill="none" height="14" viewBox="0 0 14 14" width="14" xmlns="http://www.w3.org/2000/svg"><path d="m11.0816 1h-1.79407c-.06172 0-.12221.01723-.17457.04973-.05237.03251-.09452.07898-.12165.13413l-1.52234 3.0943c-.39887.94894-.74572 1.96689-.74572 1.96689h-.03469s-.34685-1.01795-.74572-1.96689l-1.52234-3.0943c-.02712-.05516-.06927-.10163-.12163-.13413-.05236-.03251-.11284-.049735-.17456-.04973h-1.79405c-.24892 0-.40813.26387-.29105.48243l2.20201 4.11132h-1.60292c-.18213 0-.3298.14692-.3298.32813v.875c0 .1812.14767.32812.3298.32812h2.42305l.54522 1.01795v.73205h-2.96827c-.18213 0-.3298.14692-.3298.32812v.87498c0 .1812.14767.3281.3298.3281h2.96827v2.5157c0 .1812.14767.3281.32981.3281h1.5391c.18214 0 .32981-.1469.32981-.3281v-2.5157h2.96831c.1821 0 .3298-.1469.3298-.3281v-.87498c0-.1812-.1477-.32812-.3298-.32812h-2.96831v-.73205l.54523-1.01795h2.42308c.1821 0 .3298-.14692.3298-.32812v-.875c0-.18121-.1477-.32813-.3298-.32813h-1.60296l2.20206-4.11132c.117-.21856-.0421-.48243-.2911-.48243z" fill="#333"/></svg>